<?xml version="1.0" encoding="utf-8"?>
<!-- Generator: Adobe Illustrator 25.3.1, SVG Export Plug-In . SVG Version: 6.00 Build 0)  -->
<svg version="1.1" id="Events" xmlns="http://www.w3.org/2000/svg" xmlns:xlink="http://www.w3.org/1999/xlink" x="0px" y="0px"
	 viewBox="0 0 475.79 107.55" style="enable-background:new 0 0 475.79 107.55;" xml:space="preserve">
<g>
	<path d="M78.6,105H0C0,70.05,0,34.95,0,0h78.6v19.2H19.65v24.15H76.5V61.8H19.65v23.7H78.6V105z"/>
	<path d="M169.2,30.9l-31.5,74.4h-19.8L86.25,30.9h19.95l10.2,24.45l11.4,31.2l11.25-30.9l10.2-24.75H169.2z"/>
	<path d="M193.65,74.55c1.2,9.15,9.15,15.75,22.05,15.75c6.75,0,15.6-2.55,19.8-6.9l11.7,11.55c-7.8,8.1-20.55,12-31.8,12
		c-25.5,0-40.65-15.75-40.65-39.45c0-22.5,15.3-38.7,39.3-38.7c24.75,0,40.2,15.3,37.35,45.75H193.65z M233.85,59.4
		c-1.2-9.6-8.7-14.4-19.2-14.4c-9.9,0-18,4.8-20.7,14.4H233.85z"/>
	<path d="M319.94,105V66.3c0-11.25-6.15-19.8-17.85-19.8c-11.25,0-18.9,9.45-18.9,20.7V105h-18.15V30.9h16.35l1.2,10.05
		c7.5-7.35,15-11.1,24.3-11.1c17.4,0,31.35,13.05,31.35,36.3V105H319.94z"/>
	<path d="M379.79,10.2v21h20.4v15.75h-20.55V78.9c0,7.05,3.9,10.5,9.6,10.5c2.85,0,6.15-0.9,8.85-2.25l5.1,15.6
		c-5.25,2.1-9.6,3-15.15,3.15c-16.05,0.6-26.55-8.55-26.55-27V46.95h-13.8V31.2h13.8V12.15L379.79,10.2z"/>
	<path d="M462.14,50.7c-5.25-4.95-11.25-6.6-18.3-6.6c-8.7,0-13.5,2.7-13.5,7.35c0,4.8,4.35,7.5,13.8,8.1
		c13.95,0.9,31.65,4.05,31.65,23.7c0,13.05-10.65,24.3-31.8,24.3c-11.7,0-23.4-1.95-34.2-13.2l9-13.05
		c5.25,5.85,17.25,10.2,25.5,10.35c6.9,0.15,13.35-3.45,13.35-8.85c0-5.1-4.2-7.2-14.7-7.8c-13.95-1.05-30.6-6.15-30.6-22.95
		c0-17.1,17.7-23.1,31.2-23.1c11.55,0,20.25,2.25,28.8,9.75L462.14,50.7z"/>
</g>
</svg>
