<svg width="690" height="294" viewBox="0 0 690 294" fill="none" xmlns="http://www.w3.org/2000/svg">
<path d="M6.67239 6.39999H23.5684V80.384H69.6484V96H6.67239V6.39999ZM142.987 70.016H93.7074C94.7314 77.824 101.515 83.456 112.523 83.456C118.283 83.456 125.835 81.28 129.419 77.568L139.403 87.424C132.747 94.336 121.867 97.664 112.267 97.664C90.5074 97.664 77.5794 84.224 77.5794 64C77.5794 44.8 90.6354 30.976 111.115 30.976C132.235 30.976 145.419 44.032 142.987 70.016ZM93.9634 57.088H128.011C126.987 48.896 120.587 44.8 111.627 44.8C103.179 44.8 96.2674 48.896 93.9634 57.088ZM158.67 16.768L174.286 15.104V33.024H191.694V46.464H174.158V73.728C174.158 79.744 177.486 82.688 182.35 82.688C184.782 82.688 187.598 81.92 189.902 80.768L194.254 94.08C189.774 95.872 186.062 96.64 181.326 96.768C167.63 97.28 158.67 89.472 158.67 73.728V46.464H146.894V33.024H158.67V16.768ZM198.019 35.2L204.163 6.39999H220.291L210.307 35.2H198.019ZM279.19 39.424L270.486 49.664C266.006 45.44 260.886 44.032 254.87 44.032C247.446 44.032 243.35 46.336 243.35 50.304C243.35 54.4 247.062 56.704 255.126 57.216C267.03 57.984 282.134 60.672 282.134 77.44C282.134 88.576 273.046 98.176 254.998 98.176C245.014 98.176 235.03 96.512 225.814 86.912L233.494 75.776C237.974 80.768 248.214 84.48 255.254 84.608C261.142 84.736 266.646 81.664 266.646 77.056C266.646 72.704 263.062 70.912 254.102 70.4C242.198 69.504 227.99 65.152 227.99 50.816C227.99 36.224 243.094 31.104 254.614 31.104C264.47 31.104 271.894 33.024 279.19 39.424Z" fill="#1C1C1C"/>
<path d="M202.584 125.432L208.856 117.496L220.376 126.2L213.336 135.16C218.2 140.664 219.992 146.936 219.992 153.848C219.992 161.656 217.048 172.664 206.68 177.4C217.176 182.648 219.736 190.2 219.736 198.264C219.736 215.672 206.424 226.424 188.12 226.424C169.816 226.424 156.12 215.288 156.12 198.264H171.608C171.608 206.456 179.16 211.832 188.12 211.832C197.08 211.832 204.12 206.968 204.12 198.264C204.12 189.56 195.928 185.592 188.12 185.592C168.408 185.592 156.12 173.56 156.12 153.848C156.12 134.136 170.456 121.848 188.12 121.848C193.112 121.848 198.232 122.488 202.584 125.432ZM188.12 136.056C179.032 136.056 171.608 142.84 171.608 153.848C171.608 164.856 179.032 171.384 188.12 171.384C197.08 171.384 204.504 164.728 204.504 153.848C204.504 142.968 197.08 136.056 188.12 136.056ZM292.537 161.016H243.257C244.281 168.824 251.065 174.456 262.073 174.456C267.833 174.456 275.385 172.28 278.969 168.568L288.953 178.424C282.297 185.336 271.417 188.664 261.817 188.664C240.057 188.664 227.129 175.224 227.129 155C227.129 135.8 240.185 121.976 260.665 121.976C281.785 121.976 294.969 135.032 292.537 161.016ZM243.513 148.088H277.561C276.537 139.896 270.137 135.8 261.177 135.8C252.729 135.8 245.817 139.896 243.513 148.088ZM308.22 107.768L323.836 106.104V124.024H341.244V137.464H323.708V164.728C323.708 170.744 327.036 173.688 331.9 173.688C334.332 173.688 337.148 172.92 339.452 171.768L343.804 185.08C339.324 186.872 335.612 187.64 330.876 187.768C317.18 188.28 308.22 180.472 308.22 164.728V137.464H296.444V124.024H308.22V107.768Z" fill="#1C1C1C"/>
<path d="M61.4362 198.24V261.6H45.8202V198.24H61.4362ZM44.4122 180.704C44.4122 192.864 62.8442 192.864 62.8442 180.704C62.8442 168.544 44.4122 168.544 44.4122 180.704ZM137.65 261.6H122.034V228.576C122.034 218.976 116.786 211.68 106.802 211.68C97.2022 211.68 90.6742 219.744 90.6742 229.344V261.6H75.1862V198.368H89.1382L90.1622 206.944C96.5622 200.672 102.962 197.472 110.898 197.472C125.746 197.472 137.65 208.608 137.65 228.448V261.6Z" fill="#1C1C1C"/>
<path d="M363.621 181.368L379.237 179.704V197.624H396.645V211.064H379.109V238.328C379.109 244.344 382.437 247.288 387.301 247.288C389.733 247.288 392.549 246.52 394.853 245.368L399.205 258.68C394.725 260.472 391.013 261.24 386.277 261.368C372.581 261.88 363.621 254.072 363.621 238.328V211.064H351.845V197.624H363.621V181.368ZM438.042 196.216C458.138 196.216 471.066 211.064 471.066 229.112C471.066 247.288 458.65 262.008 438.17 262.008C417.69 262.008 405.402 247.288 405.402 229.112C405.402 211.064 417.946 196.216 438.042 196.216ZM438.17 210.424C426.906 210.424 421.018 219.64 421.018 229.112C421.018 238.712 426.778 247.672 438.17 247.672C449.562 247.672 455.322 238.712 455.322 229.112C455.322 219.64 448.666 210.424 438.17 210.424ZM482.23 197.496H497.846V230.52C497.846 240.12 503.094 247.416 513.078 247.416C522.678 247.416 529.206 239.352 529.206 229.752V197.496H544.694V260.728H530.742L529.718 252.152C523.19 258.552 517.174 261.624 508.342 261.624C493.238 261.624 482.23 250.232 482.23 230.648V197.496ZM602.119 242.296L612.615 252.536C605.319 259.704 597.639 262.52 588.295 262.52C569.991 262.52 554.759 251.512 554.759 229.112C554.759 206.712 569.991 195.704 588.295 195.704C597.255 195.704 604.167 198.264 611.079 205.048L601.223 215.416C597.511 212.088 592.903 210.424 588.551 210.424C578.055 210.424 570.375 218.104 570.375 229.112C570.375 241.144 578.567 247.544 588.295 247.544C593.287 247.544 598.279 246.136 602.119 242.296ZM619.471 171H635.087V206.072C640.719 198.776 647.631 196.6 654.799 196.6C672.719 196.6 680.655 208.76 680.655 227.32V260.6H665.039V227.448C665.039 215.928 659.023 211.064 650.703 211.064C641.487 211.064 635.087 218.872 635.087 228.344V260.6H619.471V171Z" fill="#1C1C1C"/>
</svg>
