<svg width="302" height="245" viewBox="0 0 302 245" fill="none" xmlns="http://www.w3.org/2000/svg">
<path d="M19.7847 4.4V66H63.0807V55.264H31.4007V4.4H19.7847ZM113.501 48.136C115.173 30.272 106.109 21.296 91.5892 21.296C77.5092 21.296 68.5332 30.8 68.5332 44C68.5332 57.904 77.4212 67.144 92.3812 67.144C98.9812 67.144 106.461 64.856 111.037 60.104L104.173 53.328C101.709 55.88 96.5172 57.376 92.5572 57.376C84.9892 57.376 80.3252 53.504 79.6212 48.136H113.501ZM79.7972 39.248C81.3812 33.616 86.1332 30.8 91.9412 30.8C98.1012 30.8 102.501 33.616 103.205 39.248H79.7972ZM124.283 11.528V22.704H116.187V31.944H124.283V50.688C124.283 61.512 130.443 66.88 139.859 66.528C143.115 66.44 145.667 65.912 148.747 64.68L145.755 55.528C144.171 56.32 142.235 56.848 140.563 56.848C137.219 56.848 134.931 54.824 134.931 50.688V31.944H146.987V22.704H135.019V10.384L124.283 11.528ZM151.336 24.2H159.784L166.648 4.4H155.56L151.336 24.2ZM207.141 27.104C202.125 22.704 197.021 21.384 190.245 21.384C182.325 21.384 171.941 24.904 171.941 34.936C171.941 44.792 181.709 47.784 189.893 48.4C196.053 48.752 198.517 49.984 198.517 52.976C198.517 56.144 194.733 58.256 190.685 58.168C185.845 58.08 178.805 55.528 175.725 52.096L170.445 59.752C176.781 66.352 183.645 67.496 190.509 67.496C202.917 67.496 209.165 60.896 209.165 53.24C209.165 41.712 198.781 39.864 190.597 39.336C185.053 38.984 182.501 37.4 182.501 34.584C182.501 31.856 185.317 30.272 190.421 30.272C194.557 30.272 198.077 31.24 201.157 34.144L207.141 27.104Z" fill="black"/>
<path d="M119.705 97.672L124.017 92.216L131.937 98.2L127.097 104.36C130.441 108.144 131.673 112.456 131.673 117.208C131.673 122.576 129.649 130.144 122.521 133.4C129.737 137.008 131.497 142.2 131.497 147.744C131.497 159.712 122.345 167.104 109.761 167.104C97.1774 167.104 87.7614 159.448 87.7614 147.744H98.4094C98.4094 153.376 103.601 157.072 109.761 157.072C115.921 157.072 120.761 153.728 120.761 147.744C120.761 141.76 115.129 139.032 109.761 139.032C96.2094 139.032 87.7614 130.76 87.7614 117.208C87.7614 103.656 97.6174 95.208 109.761 95.208C113.193 95.208 116.713 95.648 119.705 97.672ZM109.761 104.976C103.513 104.976 98.4094 109.64 98.4094 117.208C98.4094 124.776 103.513 129.264 109.761 129.264C115.921 129.264 121.025 124.688 121.025 117.208C121.025 109.728 115.921 104.976 109.761 104.976ZM181.548 122.136H147.668C148.372 127.504 153.036 131.376 160.604 131.376C164.564 131.376 169.756 129.88 172.22 127.328L179.084 134.104C174.508 138.856 167.028 141.144 160.428 141.144C145.468 141.144 136.58 131.904 136.58 118C136.58 104.8 145.556 95.296 159.636 95.296C174.156 95.296 183.22 104.272 181.548 122.136ZM147.844 113.248H171.252C170.548 107.616 166.148 104.8 159.988 104.8C154.18 104.8 149.428 107.616 147.844 113.248ZM192.33 85.528L203.066 84.384V96.704H215.034V105.944H202.978V124.688C202.978 128.824 205.266 130.848 208.61 130.848C210.282 130.848 212.218 130.32 213.802 129.528L216.794 138.68C213.714 139.912 211.162 140.44 207.906 140.528C198.49 140.88 192.33 135.512 192.33 124.688V105.944H184.234V96.704H192.33V85.528Z" fill="black"/>
<path d="M14.5763 110.44V154H3.84031V110.44H14.5763ZM2.87231 98.384C2.87231 106.744 15.5443 106.744 15.5443 98.384C15.5443 90.024 2.87231 90.024 2.87231 98.384ZM66.9734 154V131.208C66.9734 117.568 58.7894 109.912 48.5814 109.912C43.1254 109.912 38.7254 112.112 34.3254 116.424L33.6214 110.528H24.0294V154H34.6774V131.824C34.6774 125.224 39.1654 119.68 45.7654 119.68C52.6294 119.68 56.2374 124.696 56.2374 131.296V154H66.9734Z" fill="black"/>
<path d="M78.2052 168.528L88.9412 167.384V179.704H100.909V188.944H88.8532V207.688C88.8532 211.824 91.1412 213.848 94.4852 213.848C96.1572 213.848 98.0932 213.32 99.6772 212.528L102.669 221.68C99.5892 222.912 97.0372 223.44 93.7812 223.528C84.3652 223.88 78.2052 218.512 78.2052 207.688V188.944H70.1092V179.704H78.2052V168.528ZM129.37 178.736C143.186 178.736 152.074 188.944 152.074 201.352C152.074 213.848 143.538 223.968 129.458 223.968C115.378 223.968 106.93 213.848 106.93 201.352C106.93 188.944 115.554 178.736 129.37 178.736ZM129.458 188.504C121.714 188.504 117.666 194.84 117.666 201.352C117.666 207.952 121.626 214.112 129.458 214.112C137.29 214.112 141.25 207.952 141.25 201.352C141.25 194.84 136.674 188.504 129.458 188.504ZM159.749 179.616H170.485V202.32C170.485 208.92 174.093 213.936 180.957 213.936C187.557 213.936 192.045 208.392 192.045 201.792V179.616H202.693V223.088H193.101L192.397 217.192C187.909 221.592 183.773 223.704 177.701 223.704C167.317 223.704 159.749 215.872 159.749 202.408V179.616ZM242.173 210.416L249.389 217.456C244.373 222.384 239.093 224.32 232.669 224.32C220.085 224.32 209.613 216.752 209.613 201.352C209.613 185.952 220.085 178.384 232.669 178.384C238.829 178.384 243.581 180.144 248.333 184.808L241.557 191.936C239.005 189.648 235.837 188.504 232.845 188.504C225.629 188.504 220.349 193.784 220.349 201.352C220.349 209.624 225.981 214.024 232.669 214.024C236.101 214.024 239.533 213.056 242.173 210.416ZM254.102 161.4H264.838V185.512C268.71 180.496 273.462 179 278.39 179C290.71 179 296.166 187.36 296.166 200.12V223H285.43V200.208C285.43 192.288 281.294 188.944 275.574 188.944C269.238 188.944 264.838 194.312 264.838 200.824V223H254.102V161.4Z" fill="black"/>
</svg>
