<svg width="824" height="328" viewBox="0 0 824 328" fill="none" xmlns="http://www.w3.org/2000/svg">
<path d="M7.32944 7.19999V108H78.1774V90.432H26.3374V7.19999H7.32944ZM160.684 78.768C163.42 49.536 148.588 34.848 124.828 34.848C101.788 34.848 87.0998 50.4 87.0998 72C87.0998 94.752 101.644 109.872 126.124 109.872C136.924 109.872 149.164 106.128 156.652 98.352L145.42 87.264C141.388 91.44 132.892 93.888 126.412 93.888C114.028 93.888 106.396 87.552 105.244 78.768H160.684ZM105.532 64.224C108.124 55.008 115.9 50.4 125.404 50.4C135.484 50.4 142.684 55.008 143.836 64.224H105.532ZM178.327 18.864V37.152H165.079V52.272H178.327V82.944C178.327 100.656 188.407 109.44 203.815 108.864C209.143 108.72 213.319 107.856 218.359 105.84L213.463 90.864C210.871 92.16 207.703 93.024 204.967 93.024C199.495 93.024 195.751 89.712 195.751 82.944V52.272H215.479V37.152H195.895V16.992L178.327 18.864ZM222.595 39.6H236.419L247.651 7.19999H229.507L222.595 39.6ZM313.912 44.352C305.704 37.152 297.352 34.992 286.264 34.992C273.304 34.992 256.312 40.752 256.312 57.168C256.312 73.296 272.296 78.192 285.688 79.2C295.768 79.776 299.8 81.792 299.8 86.688C299.8 91.872 293.608 95.328 286.984 95.184C279.064 95.04 267.544 90.864 262.504 85.248L253.864 97.776C264.232 108.576 275.464 110.448 286.696 110.448C307 110.448 317.224 99.648 317.224 87.12C317.224 68.256 300.232 65.232 286.84 64.368C277.768 63.792 273.592 61.2 273.592 56.592C273.592 52.128 278.2 49.536 286.552 49.536C293.32 49.536 299.08 51.12 304.12 55.872L313.912 44.352Z" fill="black"/>
<path d="M255.83 139.728C245.462 129.504 231.926 124.32 218.39 124.32C182.822 124.32 165.11 150.528 165.11 178.896C165.11 205.392 180.518 230.304 218.39 230.304C236.102 230.304 248.63 223.536 258.566 212.16V169.68H215.366V186.672H241.142V204.528C233.222 210.864 226.31 212.592 218.39 212.592C193.334 212.592 183.686 195.456 183.686 178.896C183.686 158.16 196.79 141.744 218.39 141.744C227.174 141.744 237.254 145.344 244.022 151.824L255.83 139.728ZM344.715 198.768C347.451 169.536 332.619 154.848 308.859 154.848C285.819 154.848 271.131 170.4 271.131 192C271.131 214.752 285.675 229.872 310.155 229.872C320.955 229.872 333.195 226.128 340.683 218.352L329.451 207.264C325.419 211.44 316.923 213.888 310.443 213.888C298.059 213.888 290.427 207.552 289.275 198.768H344.715ZM289.563 184.224C292.155 175.008 299.931 170.4 309.435 170.4C319.515 170.4 326.715 175.008 327.867 184.224H289.563ZM362.358 138.864V157.152H349.11V172.272H362.358V202.944C362.358 220.656 372.438 229.44 387.846 228.864C393.174 228.72 397.35 227.856 402.39 225.84L397.494 210.864C394.902 212.16 391.734 213.024 388.998 213.024C383.526 213.024 379.782 209.712 379.782 202.944V172.272H399.51V157.152H379.926V136.992L362.358 138.864Z" fill="black"/>
<path d="M70.6249 220.72V292H53.0569V220.72H70.6249ZM51.4729 200.992C51.4729 214.672 72.2089 214.672 72.2089 200.992C72.2089 187.312 51.4729 187.312 51.4729 200.992ZM156.366 292V254.704C156.366 232.384 142.974 219.856 126.27 219.856C117.342 219.856 110.142 223.456 102.942 230.512L101.79 220.864H86.0936V292H103.518V255.712C103.518 244.912 110.862 235.84 121.662 235.84C132.894 235.84 138.798 244.048 138.798 254.848V292H156.366Z" fill="black"/>
<path d="M466.433 292H485.441V208.48H517.409V191.2C488.177 191.2 463.553 191.2 434.465 191.2V208.48H466.433V292ZM541.668 219.568C519.06 219.568 504.948 236.272 504.948 256.576C504.948 277.024 518.772 293.584 541.812 293.584C564.852 293.584 578.82 277.024 578.82 256.576C578.82 236.272 564.276 219.568 541.668 219.568ZM541.812 235.552C553.62 235.552 561.108 245.92 561.108 256.576C561.108 267.376 554.628 277.456 541.812 277.456C528.996 277.456 522.516 267.376 522.516 256.576C522.516 245.92 529.14 235.552 541.812 235.552ZM591.38 221.008V258.304C591.38 280.336 603.764 293.152 620.756 293.152C630.692 293.152 637.46 289.696 644.804 282.496L645.956 292.144H661.652V221.008H644.228V257.296C644.228 268.096 636.884 277.168 626.084 277.168C614.852 277.168 608.948 268.96 608.948 258.16V221.008H591.38ZM726.255 271.408C721.935 275.728 716.319 277.312 710.703 277.312C699.759 277.312 690.543 270.112 690.543 256.576C690.543 244.192 699.183 235.552 710.991 235.552C715.887 235.552 721.071 237.424 725.247 241.168L736.335 229.504C728.559 221.872 720.783 218.992 710.703 218.992C690.111 218.992 672.975 231.376 672.975 256.576C672.975 281.776 690.111 294.16 710.703 294.16C721.215 294.16 729.855 290.992 738.063 282.928L726.255 271.408ZM745.776 191.2V292H763.344V255.712C763.344 245.056 770.544 236.272 780.912 236.272C790.272 236.272 797.04 241.744 797.04 254.704V292H814.608V254.56C814.608 233.68 805.68 220 785.52 220C777.456 220 769.68 222.448 763.344 230.656V191.2H745.776Z" fill="black"/>
</svg>
