<svg width="24" height="24" viewBox="0 0 24 24" fill="none" xmlns="http://www.w3.org/2000/svg">
<path d="M16.5 0H7.5C3.35625 0 0 3.35625 0 7.5V16.5C0 20.6437 3.35625 24 7.5 24H16.5C20.6437 24 24 20.6437 24 16.5V7.5C24 3.35625 20.6437 0 16.5 0ZM21.75 16.5C21.75 19.3969 19.3969 21.75 16.5 21.75H7.5C4.60313 21.75 2.25 19.3969 2.25 16.5V7.5C2.25 4.60313 4.60313 2.25 7.5 2.25H16.5C19.3969 2.25 21.75 4.60313 21.75 7.5V16.5Z" fill="#363636"/>
<path d="M12 6.00012C8.68594 6.00012 6 8.68606 6 12.0001C6 15.3142 8.68594 18.0001 12 18.0001C15.3141 18.0001 18 15.3142 18 12.0001C18 8.68606 15.3141 6.00012 12 6.00012ZM12 15.7501C9.93281 15.7501 8.25 14.0673 8.25 12.0001C8.25 9.93293 9.93281 8.25012 12 8.25012C14.0672 8.25012 15.75 9.93293 15.75 12.0001C15.75 14.0673 14.0672 15.7501 12 15.7501Z" fill="#363636"/>
<path d="M18.45 6.35184C18.8927 6.35184 19.2516 5.99297 19.2516 5.55028C19.2516 5.10759 18.8927 4.74872 18.45 4.74872C18.0073 4.74872 17.6484 5.10759 17.6484 5.55028C17.6484 5.99297 18.0073 6.35184 18.45 6.35184Z" fill="#363636"/>
</svg>
