<?xml version="1.0" encoding="UTF-8"?>
<svg id="a" data-name="Layer 1" xmlns="http://www.w3.org/2000/svg" width="7061" height="1920" viewBox="0 0 7061 1920">
  <g>
    <path d="m388.713,423.962h-235.053v-44.595h520.275v44.595h-235.053v604.819h-50.169V423.962Z" stroke-width="0"/>
    <path d="m1234.145,1028.781v-295.441h-414.361v295.441h-50.169V378.438h50.169v309.378h414.361v-309.378h50.169v650.344h-50.169Z" stroke-width="0"/>
    <path d="m1476.628,678.526h380.915v45.523h-380.915v256.421h410.646v48.312h-459.886V378.438h448.737v47.383h-399.497v252.705Z" stroke-width="0"/>
    <path d="m2557.124,947.024c-66.892,65.964-153.295,96.623-247.13,96.623-241.557,0-343.753-166.303-344.683-335.392-.929-170.019,109.63-342.824,344.683-342.824,88.261,0,171.876,33.446,238.769,99.41l-81.757,78.97c-42.737-41.808-100.339-61.317-157.012-61.317-157.012,0-224.833,117.062-223.904,225.762.93,107.771,63.177,220.188,223.904,220.188,56.673,0,120.777-23.227,163.515-65.963l83.615,84.544Z" stroke-width="0"/>
    <path d="m3265.049,707.326c-1.858,168.16-104.984,336.32-333.533,336.32s-334.463-164.444-334.463-335.392,109.63-342.824,334.463-342.824,335.392,171.877,333.533,341.896Zm-547.218,2.787c2.787,106.842,60.39,221.116,213.685,221.116s210.896-115.203,212.755-222.046c1.858-109.629-59.46-232.266-212.755-232.266s-216.472,123.565-213.685,233.195Z" stroke-width="0"/>
    <path d="m3921.883,557.747l-211.826,282.435h-24.155l-207.182-283.364v472.893h-122.636V379.367h141.218l203.464,279.647,203.465-279.647h140.288v650.343h-122.636v-471.963Z" stroke-width="0"/>
    <path d="m4466.309,837.395h-183.954v191.387h-122.636V378.438c102.196,0,204.394-.929,306.59-.929,317.739,0,318.668,459.886,0,459.886Zm-183.954-112.416h183.954c157.012,0,156.083-230.408,0-230.408h-183.954v230.408Z" stroke-width="0"/>
    <path d="m5249.502,906.146h-340.036l-55.744,122.636h-132.855l291.726-650.344h133.784l291.726,650.344h-133.785l-54.814-122.636Zm-170.019-391.136l-120.777,276.86h241.556l-120.778-276.86Z" stroke-width="0"/>
    <path d="m5921.193,377.509h122.636v651.272h-76.183v.929l-341.895-439.446v438.518h-122.637V378.438h99.41l318.668,403.213v-404.142Z" stroke-width="0"/>
    <path d="m6430.316,646.937l172.805-268.499h147.722v5.575l-259.209,376.27v268.499h-122.636v-268.499l-249.918-376.27v-5.575h145.863l165.373,268.499Z" stroke-width="0"/>
  </g>
  <g>
    <path d="m1291.985,1107.118c3.092-3.092,6.503-3.397,10.22-.929,3.716,2.481,4.021,5.269.929,8.361-8.681,11.772-17.042,24.475-25.084,38.091-8.057,13.632-15.025,27.103-20.904,40.414-5.894,13.326-10.539,26.333-13.936,39.021-3.412,12.702-5.11,23.691-5.11,32.982,0,3.716.77,6.968,2.323,9.755,1.539,2.787,3.251,4.181,5.11,4.181,6.808,0,10.219-5.879,10.219-17.652,0-10.524-2.482-21.673-7.432-33.446-1.858-3.092-1.249-5.414,1.858-6.968,3.092-1.539,5.574-1.394,7.433.465,8.042,6.822,19.655,11.933,34.84,15.329,15.169,3.411,31.428,5.11,48.775,5.11,17.957,0,35.609-1.394,52.957-4.181,17.333-2.788,32.198-6.649,44.595-11.613,4.326-1.234,6.808.319,7.433,4.645.61,4.341-.625,7.128-3.716,8.362-12.397,4.964-27.727,8.825-45.988,11.613-18.276,2.787-36.698,4.181-55.279,4.181-13.631,0-27.103-1.074-40.414-3.252-13.326-2.163-24.62-5.11-33.911-8.826.61,3.106,1.074,6.358,1.394,9.755.305,3.412.464,6.358.464,8.826,0,9.291-1.858,16.724-5.574,22.298s-9.61,8.361-17.652,8.361c-5.575,0-10.379-2.642-14.401-7.897-4.035-5.255-6.039-11.613-6.039-19.045,0-10.525,1.698-22.443,5.11-35.77,3.397-13.312,8.202-26.942,14.4-40.878,6.184-13.937,13.312-27.872,21.368-41.808,8.042-13.937,16.723-27.088,26.014-39.485Z" stroke="#000" stroke-miterlimit="10" stroke-width="7"/>
    <path d="m1735.134,1226.038c4.326-1.234,6.968.319,7.897,4.645.929,4.341-.465,7.128-4.182,8.362-29.729,6.822-59.459,14.4-89.189,22.762s-57.921,17.188-84.544,26.479v7.432c0,14.241-2.642,30.34-7.897,48.312-5.27,17.957-13.327,34.68-24.156,50.169-10.844,15.475-24.475,28.481-40.878,39.021-16.418,10.524-36.088,15.794-58.996,15.794-12.397,0-22.602-4.035-30.659-12.077-8.042-8.057-12.078-17.652-12.078-28.801,0-13.007,4.036-25.404,12.078-37.163,8.057-11.772,19.351-22.921,33.911-33.446,14.545-10.539,31.588-20.438,51.098-29.729s40.719-18.276,63.641-26.942c-1.858-11.759-6.199-17.652-13.007-17.652-10.539,0-20.759,2.018-30.659,6.039-9.915,4.035-21.063,6.038-33.446,6.038-14.255,0-25.245-3.556-32.982-10.684-7.752-7.113-10.074-18.727-6.968-34.84,1.234-3.092,3.861-4.646,7.897-4.646s5.72,2.178,5.11,6.504c-1.858,10.539-.16,18.276,5.11,23.227,5.255,4.964,12.542,7.433,21.833,7.433,11.148,0,21.673-2.004,31.588-6.039,9.9-4.021,20.744-6.039,32.517-6.039s19.815,8.681,24.155,26.014c27.248-9.291,55.424-18.117,84.544-26.479,29.105-8.361,58.531-16.259,88.261-23.69Zm-301.944,209.967c20.439,0,38.091-4.805,52.957-14.4,14.865-9.609,27.248-21.688,37.162-36.233,9.9-14.56,17.188-29.89,21.833-45.988,4.646-16.113,6.968-30.659,6.968-43.666v-2.787c-21.688,8.042-41.503,16.404-59.46,25.085-17.972,8.666-33.606,17.797-46.917,27.407-13.326,9.596-23.691,19.655-31.124,30.194-7.433,10.524-11.149,21.368-11.149,32.518,0,7.432,2.787,13.936,8.362,19.51,5.574,5.574,12.688,8.361,21.368,8.361Z" stroke="#000" stroke-miterlimit="10" stroke-width="7"/>
    <path d="m2044.502,1110.834c3.717,1.249,4.791,4.036,3.252,8.361-1.553,4.341-3.876,5.895-6.968,4.646-17.972-6.184-32.372-15.329-43.201-27.407-10.845-12.077-16.259-28.017-16.259-47.847,0-33.446,12.383-67.502,37.162-102.196,24.766-34.68,60.534-66.428,107.307-95.229,46.758-28.801,104.199-52.332,172.341-70.608,68.126-18.262,145.543-27.407,232.265-27.407,56.978,0,100.484,14.255,130.533,42.736,30.035,28.496,45.059,66.283,45.059,113.346,0,64.424-6.198,126.512-18.58,186.276-12.397,59.779-30.354,116.597-53.886,170.482,80.509-13.616,168.77-26.623,264.782-39.021,4.325-.609,6.503,1.248,6.503,5.574s-1.553,6.823-4.646,7.433c-50.169,6.198-97.87,12.702-143.075,19.51-45.219,6.823-88.579,13.632-130.068,20.439-27.262,59.46-60.243,113.955-98.944,163.515-38.716,49.545-82.077,92.122-130.068,127.746-48.006,35.609-99.874,63.321-155.617,83.15-55.744,19.815-113.665,29.73-173.734,29.73-37.162,0-66.428-8.362-87.797-25.085-21.368-16.723-32.053-40.574-32.053-71.538,0-29.729,13.472-59.154,40.414-88.26,26.943-29.121,68.127-57.297,123.565-84.545,55.425-27.262,125.104-53.275,209.038-78.041,83.92-24.779,182.561-47.382,295.906-67.821,24.155-54.495,42.736-111.792,55.743-171.876,13.007-60.069,19.511-122.636,19.511-187.67,0-43.347-13.937-78.041-41.809-104.055-27.871-26.014-68.141-39.021-120.777-39.021-84.863,0-160.422,8.681-226.69,26.014-66.282,17.347-122.331,39.804-168.159,67.356-45.844,27.567-80.829,58.066-104.984,91.513-24.156,33.446-36.233,65.963-36.233,97.551,0,16.113,4.485,29.266,13.472,39.485,8.971,10.22,21.209,17.812,36.697,22.762Zm24.156,560.224c58.211,0,114.273-9.45,168.159-28.337,53.886-18.9,104.055-45.523,150.508-79.898,46.453-34.376,88.726-75.254,126.817-122.637,38.091-47.382,70.448-99.873,97.086-157.476-220.506,39.631-383.861,86.243-490.079,139.824-106.231,53.565-159.333,108.54-159.333,164.907,0,27.248,9.436,47.992,28.336,62.247,18.886,14.241,45.059,21.369,78.506,21.369Z" stroke="#000" stroke-miterlimit="10" stroke-width="7"/>
    <path d="m2909.457,1217.676c3.716-1.233,6.503.319,8.361,4.646,1.858,4.341.929,7.128-2.787,8.361-4.965,1.858-9.146,5.43-12.543,10.685-3.411,5.27-6.038,10.685-7.896,16.259s-2.642,10.539-2.322,14.864c.305,4.341,2.322,6.504,6.038,6.504,4.95,0,8.972-3.717,12.078-11.148,3.092-7.433,4.021-15.475,2.787-24.156-.624-4.325.305-7.112,2.787-8.361,2.468-1.233,4.95-1.539,7.433-.929,11.148,2.482,22.603,4.181,34.375,5.109,11.759.93,23.531,1.394,35.305,1.394,39.021,0,72.467-4.95,100.338-14.864,3.717-1.234,6.185.159,7.433,4.181,1.234,4.035,0,6.968-3.716,8.826-27.872,9.914-62.566,14.864-104.055,14.864-12.397,0-24.156-.305-35.305-.929-11.148-.609-21.063-1.539-29.729-2.787.609,8.681-1.554,17.812-6.504,27.407-4.965,9.596-12.702,14.4-23.227,14.4-8.681,0-14.255-3.411-16.723-10.22-2.482-6.809-2.947-14.4-1.394-22.762,1.539-8.361,4.95-16.563,10.22-24.62,5.255-8.042,11.613-13.617,19.046-16.724Z" stroke="#000" stroke-miterlimit="10" stroke-width="7"/>
    <path d="m3096.19,1213.96c1.858-3.092,4.486-3.716,7.897-1.858,3.396,1.858,4.485,4.341,3.252,7.433-1.858,3.716-3.717,8.361-5.574,13.936-1.858,5.575-3.252,11.004-4.182,16.259-.929,5.27-1.394,9.915-1.394,13.937s1.539,6.038,4.646,6.038c8.667,0,18.117-4.021,28.337-12.077,10.22-8.042,19.045-17.333,26.478-27.872,4.326-6.184,8.972-5.879,13.937.929,5.574,8.057,12.077,15.185,19.51,21.369,7.433,6.198,17.652,9.29,30.659,9.29,7.433,0,15.794-1.233,25.085-3.716,9.29-2.468,18.726-5.415,28.336-8.826,9.596-3.397,18.422-6.968,26.479-10.685,8.042-3.716,14.24-7.113,18.581-10.22,3.716-3.092,7.113-2.932,10.22.465,3.092,3.411,2.468,6.663-1.858,9.755-4.965,3.717-11.772,7.752-20.439,12.078-8.681,4.34-18.116,8.216-28.336,11.613-10.22,3.411-20.6,6.358-31.124,8.826-10.539,2.482-19.51,3.716-26.942,3.716-13.631,0-25.404-3.252-35.305-9.755-9.914-6.504-17.651-13.472-23.227-20.904-6.198,8.057-15.184,16.578-26.942,25.55-11.772,8.985-22.922,13.471-33.446,13.471-7.433,0-12.237-2.627-14.4-7.896-2.178-5.255-2.787-11.613-1.858-19.046.93-7.433,2.628-15.01,5.11-22.762,2.468-7.737,4.646-14.081,6.503-19.046Z" stroke="#000" stroke-miterlimit="10" stroke-width="7"/>
    <path d="m3388.832,1231.613c-1.248,3.106-3.716,4.5-7.433,4.181-3.716-.305-5.574-2.323-5.574-6.039.609-2.468.305-5.255-.929-8.361-1.249-3.092-4.036-4.646-8.362-4.646-4.964,0-10.219,1.394-15.794,4.181-5.574,2.787-10.844,6.358-15.794,10.685-4.964,4.34-9.146,8.826-12.542,13.471-3.411,4.646-5.109,9.146-5.109,13.472,0,2.482,1.233,3.571,3.716,3.252,2.468-.305,5.72-1.539,9.755-3.717,4.021-2.162,8.507-4.95,13.472-8.361,4.95-3.396,9.9-7.272,14.865-11.613,3.716-3.092,6.808-4.326,9.29-3.716,2.468.624,4.95,2.178,7.433,4.646,8.666,8.681,18.262,14.56,28.801,17.651,10.524,3.106,20.12,4.646,28.801,4.646,15.475,0,32.357-3.396,50.634-10.22,18.262-6.808,35.145-14.864,50.634-24.155,4.95-1.858,8.202-1.074,9.755,2.322,1.539,3.412.77,6.358-2.322,8.826-16.113,9.915-34.07,18.437-53.886,25.55-19.829,7.127-38.091,10.684-54.814,10.684-12.396,0-24.315-2.003-35.769-6.039-11.468-4.021-22.152-10.364-32.053-19.046-15.489,14.865-29.585,23.227-42.272,25.085-12.701,1.858-19.045-3.396-19.045-15.794,0-5.574,2.003-11.613,6.038-18.116,4.021-6.504,9.131-12.383,15.33-17.652,6.184-5.255,13.007-9.755,20.439-13.472,7.433-3.716,14.24-5.574,20.438-5.574,9.9,0,16.259,3.411,19.046,10.22,2.787,6.822,3.861,12.702,3.252,17.652Z" stroke="#000" stroke-miterlimit="10" stroke-width="7"/>
    <path d="m3534.689,1231.613c1.234-4.326,3.861-5.88,7.897-4.646,4.021,1.248,5.72,3.411,5.109,6.503l-4.645,22.298c12.382-8.666,24.3-16.403,35.769-23.227,11.453-6.809,20.903-10.22,28.336-10.22,8.042,0,13.472,2.323,16.259,6.968,2.787,4.646,5.109,9.146,6.968,13.472,2.468,5.574,6.185,11.148,11.148,16.723,4.95,5.575,13.937,8.362,26.943,8.362,12.383,0,29.265-2.933,50.634-8.826,21.368-5.88,49.385-16.563,84.08-32.053,3.716-1.234,6.344-.146,7.896,3.252,1.539,3.411.77,6.039-2.322,7.896-36.553,16.113-65.818,27.263-87.797,33.446-21.992,6.198-39.484,9.291-52.491,9.291-8.682,0-15.794-.93-21.368-2.787-5.575-1.858-10.22-4.486-13.937-7.897-3.716-3.396-6.503-6.968-8.361-10.685-1.858-3.716-3.716-7.432-5.574-11.148-3.106-8.666-7.128-13.007-12.078-13.007-6.822,0-15.185,3.252-25.085,9.755-9.914,6.504-24.779,17.188-44.595,32.053-1.248,1.249-3.411,2.018-6.503,2.323-3.106.319-4.341-1.074-3.717-4.182l7.433-43.665Z" stroke="#000" stroke-miterlimit="10" stroke-width="7"/>
    <path d="m3871.933,1231.613c-1.248,3.106-3.716,4.5-7.433,4.181-3.716-.305-5.574-2.323-5.574-6.039.609-2.468.305-5.255-.929-8.361-1.249-3.092-4.036-4.646-8.362-4.646-4.964,0-10.219,1.394-15.794,4.181-5.574,2.787-10.844,6.358-15.794,10.685-4.964,4.34-9.146,8.826-12.542,13.471-3.411,4.646-5.109,9.146-5.109,13.472,0,2.482,1.233,3.571,3.716,3.252,2.468-.305,5.72-1.539,9.755-3.717,4.021-2.162,8.507-4.95,13.472-8.361,4.95-3.396,9.9-7.272,14.865-11.613,3.716-3.092,6.808-4.326,9.29-3.716,2.468.624,4.95,2.178,7.433,4.646,8.666,8.681,18.262,14.56,28.801,17.651,10.524,3.106,20.12,4.646,28.801,4.646,15.475,0,32.357-3.396,50.634-10.22,18.262-6.808,35.145-14.864,50.634-24.155,4.95-1.858,8.202-1.074,9.755,2.322,1.539,3.412.77,6.358-2.322,8.826-16.113,9.915-34.07,18.437-53.886,25.55-19.829,7.127-38.091,10.684-54.814,10.684-12.396,0-24.315-2.003-35.769-6.039-11.468-4.021-22.152-10.364-32.053-19.046-15.489,14.865-29.585,23.227-42.272,25.085-12.701,1.858-19.045-3.396-19.045-15.794,0-5.574,2.003-11.613,6.038-18.116,4.021-6.504,9.131-12.383,15.33-17.652,6.184-5.255,13.007-9.755,20.439-13.472,7.433-3.716,14.24-5.574,20.438-5.574,9.9,0,16.259,3.411,19.046,10.22,2.787,6.822,3.861,12.702,3.252,17.652Z" stroke="#000" stroke-miterlimit="10" stroke-width="7"/>
    <path d="m4956.14,839.549c1.234,4.965-.319,7.897-4.646,8.826-4.34.929-7.127-.77-8.361-5.11-4.965-16.099-12.078-31.269-21.368-45.523-9.291-14.241-20.759-26.783-34.375-37.627-13.632-10.829-29.266-19.351-46.918-25.549-17.652-6.185-37.018-9.291-58.066-9.291-32.212,0-67.517,3.716-105.912,11.148-38.411,7.433-77.112,17.507-116.133,30.194-39.021,12.702-76.647,27.872-112.881,45.524s-68.445,36.698-96.622,57.137c-28.191,20.439-50.794,42.128-67.821,65.034-17.043,22.922-25.55,45.844-25.55,68.751,0,11.148,6.969,19.829,20.904,26.014,13.936,6.198,32.053,11.148,54.35,14.865,22.298,3.716,47.527,6.357,75.719,7.896,28.177,1.554,56.817,2.947,85.938,4.181,38.396,1.249,77.111,3.106,116.132,5.574,39.021,2.482,74.165,7.288,105.448,14.4,31.269,7.128,56.818,17.508,76.647,31.124,19.815,13.631,29.73,32.212,29.73,55.743,0,14.256-4.646,29.426-13.937,45.524-9.29,16.113-21.833,31.907-37.627,47.382-15.794,15.489-34.07,30.34-54.814,44.595-20.759,14.241-42.127,26.783-64.104,37.627-21.993,10.829-44.131,19.511-66.429,26.014-22.297,6.504-43.056,9.755-62.246,9.755-19.83,0-34.695-5.429-44.596-16.258-9.914-10.845-14.864-24.315-14.864-40.414s4.95-33.446,14.864-52.027c9.9-18.582,24.766-36.233,44.596-52.957,4.325-3.092,7.432-2.787,9.29.93,1.858,3.716,1.234,6.503-1.858,8.361-17.971,14.865-31.442,30.979-40.414,48.311-8.985,17.333-13.471,33.127-13.471,47.383,0,12.382,3.861,22.762,11.613,31.123,7.737,8.361,19.351,12.542,34.84,12.542,27.247,0,57.602-6.503,91.048-19.51,33.445-13.007,64.569-29.425,93.37-49.24s52.956-41.343,72.467-64.569c19.51-23.227,29.266-44.74,29.266-64.57,0-21.049-9.291-37.467-27.872-49.24-18.581-11.758-42.896-20.744-72.932-26.942-30.049-6.184-63.8-10.365-101.268-12.542-37.481-2.163-75.108-3.861-112.88-5.11-32.837-1.233-64.266-2.627-94.3-4.181-30.05-1.539-56.673-4.485-79.899-8.826-23.227-4.326-41.662-10.684-55.279-19.046-13.631-8.361-20.439-19.655-20.439-33.91,0-24.155,8.667-47.992,26.014-71.538,17.333-23.531,40.414-46.133,69.216-67.821,28.801-21.673,61.782-41.647,98.944-59.924,37.162-18.262,75.719-34.216,115.668-47.847,39.949-13.617,79.58-24.301,118.92-32.053,39.325-7.737,75.718-11.613,109.164-11.613,22.907,0,43.971,3.252,63.176,9.755,19.191,6.504,36.074,15.649,50.635,27.407,14.545,11.773,26.942,25.404,37.162,40.879,10.22,15.489,17.797,31.907,22.762,49.24Z" stroke="#000" stroke-miterlimit="10" stroke-width="7"/>
    <path d="m4952.409,1231.613c-1.248,3.106-3.716,4.5-7.433,4.181-3.716-.305-5.574-2.323-5.574-6.039.609-2.468.305-5.255-.929-8.361-1.249-3.092-4.036-4.646-8.362-4.646-4.964,0-10.219,1.394-15.794,4.181-5.574,2.787-10.844,6.358-15.794,10.685-4.964,4.34-9.146,8.826-12.542,13.471-3.411,4.646-5.109,9.146-5.109,13.472,0,2.482,1.233,3.571,3.716,3.252,2.468-.305,5.72-1.539,9.755-3.717,4.021-2.162,8.507-4.95,13.472-8.361,4.95-3.396,9.9-7.272,14.865-11.613,3.716-3.092,6.808-4.326,9.29-3.716,2.468.624,4.95,2.178,7.433,4.646,8.666,8.681,18.262,14.56,28.801,17.651,10.524,3.106,20.12,4.646,28.801,4.646,15.475,0,32.357-3.396,50.634-10.22,18.262-6.808,35.145-14.864,50.634-24.155,4.95-1.858,8.202-1.074,9.755,2.322,1.539,3.412.77,6.358-2.322,8.826-16.113,9.915-34.07,18.437-53.886,25.55-19.829,7.127-38.091,10.684-54.814,10.684-12.396,0-24.315-2.003-35.769-6.039-11.468-4.021-22.152-10.364-32.053-19.046-15.489,14.865-29.585,23.227-42.272,25.085-12.701,1.858-19.045-3.396-19.045-15.794,0-5.574,2.003-11.613,6.038-18.116,4.021-6.504,9.131-12.383,15.33-17.652,6.184-5.255,13.007-9.755,20.439-13.472,7.433-3.716,14.24-5.574,20.438-5.574,9.9,0,16.259,3.411,19.046,10.22,2.787,6.822,3.861,12.702,3.252,17.652Z" stroke="#000" stroke-miterlimit="10" stroke-width="7"/>
    <path d="m5096.409,1231.613c.609-3.093,3.092-4.646,7.432-4.646s6.185,2.178,5.575,6.503l-4.646,24.156c4.326-3.093,9.596-6.809,15.794-11.149,6.184-4.325,12.688-8.506,19.51-12.542,6.809-4.021,13.617-7.433,20.439-10.22,6.809-2.787,13.007-4.181,18.581-4.181,9.9,0,15.33,3.252,16.259,9.755.929,6.504,1.394,13.167,1.394,19.975,0,4.341.146,8.058.465,11.149.305,3.106,1.394,4.646,3.252,4.646,8.042,0,17.651-2.787,28.801-8.362,11.148-5.574,22.297-11.758,33.446-18.581,11.758-6.808,23.066-12.847,33.91-18.116,10.829-5.255,19.975-7.897,27.407-7.897,10.524,0,18.727,2.947,24.62,8.826,5.879,5.894,11.613,12.861,17.188,20.904,4.95,6.822,10.365,13.471,16.259,19.975,5.879,6.503,14.081,9.755,24.62,9.755s22.138-2.163,34.84-6.503c12.688-4.326,24.765-9.131,36.233-14.4,11.453-5.256,21.368-10.22,29.729-14.865s13.472-7.578,15.33-8.826c3.092-2.468,5.879-2.003,8.361,1.394,2.468,3.411,2.163,6.663-.93,9.755-1.857,1.249-7.127,4.341-15.794,9.291-8.681,4.965-19.046,10.22-31.123,15.794-12.078,5.574-24.939,10.539-38.556,14.865-13.632,4.325-26.334,6.503-38.092,6.503-13.631,0-24.155-3.716-31.588-11.148s-14.256-15.475-20.439-24.156c-4.965-6.808-9.61-12.542-13.936-17.188-4.341-4.645-9.915-6.968-16.724-6.968-5.574,0-13.472,2.323-23.691,6.968-10.219,4.646-20.599,10.38-31.123,17.188-12.397,7.433-24.779,14.096-37.162,19.976-12.397,5.894-22.922,8.826-31.588,8.826s-13.632-2.933-14.865-8.826c-1.249-5.88-1.858-12.543-1.858-19.976,0-4.325-.159-8.201-.465-11.612-.319-3.397-1.713-5.11-4.181-5.11-4.34,0-9.755,1.554-16.258,4.646-6.504,3.106-13.326,6.822-20.439,11.148-7.128,4.341-14.096,8.986-20.904,13.937-6.822,4.964-13.007,9.29-18.581,13.006-4.965,3.717-8.521,4.965-10.685,3.717-2.177-1.234-2.946-3.396-2.322-6.504l6.504-40.878Z" stroke="#000" stroke-miterlimit="10" stroke-width="7"/>
    <path d="m5520.055,1230.683c1.233-3.092,3.861-4.021,7.896-2.787,4.021,1.249,5.72,3.412,5.11,6.504-3.717,12.396-2.482,22.297,3.716,29.729,6.184,7.433,15.17,11.148,26.942,11.148s24.766-1.233,39.021-3.716c14.241-2.468,28.642-5.879,43.201-10.22,14.546-4.326,28.946-9.436,43.202-15.329,14.24-5.88,27.247-12.224,39.021-19.046,3.716-2.468,6.808-2.003,9.29,1.394,2.468,3.411,1.858,6.663-1.858,9.755-12.396,7.433-26.014,14.256-40.878,20.439-14.865,6.198-29.89,11.468-45.06,15.794-15.185,4.341-30.194,7.737-45.06,10.22-14.865,2.468-28.496,3.717-40.879,3.717-17.347,0-30.354-5.11-39.021-15.33-8.681-10.22-10.22-24.301-4.645-42.272Zm43.665-77.111c-3.716,1.248-6.198-.305-7.432-4.646-1.249-4.326,0-7.113,3.716-8.361l26.942-6.504c4.95-1.233,7.897.319,8.826,4.646.93,4.341-.784,7.128-5.109,8.361l-26.943,6.504Z" stroke="#000" stroke-miterlimit="10" stroke-width="7"/>
    <path d="m5796.907,1231.613c-1.248,3.106-3.716,4.5-7.433,4.181-3.716-.305-5.574-2.323-5.574-6.039.609-2.468.305-5.255-.929-8.361-1.249-3.092-4.036-4.646-8.362-4.646-4.964,0-10.219,1.394-15.794,4.181-5.574,2.787-10.844,6.358-15.794,10.685-4.964,4.34-9.146,8.826-12.542,13.471-3.411,4.646-5.109,9.146-5.109,13.472,0,2.482,1.233,3.571,3.716,3.252,2.468-.305,5.72-1.539,9.755-3.717,4.021-2.162,8.507-4.95,13.472-8.361,4.95-3.396,9.9-7.272,14.865-11.613,3.716-3.092,6.808-4.326,9.29-3.716,2.468.624,4.95,2.178,7.433,4.646,8.666,8.681,18.262,14.56,28.801,17.651,10.524,3.106,20.12,4.646,28.801,4.646,15.475,0,32.357-3.396,50.634-10.22,18.262-6.808,35.145-14.864,50.634-24.155,4.95-1.858,8.202-1.074,9.755,2.322,1.539,3.412.77,6.358-2.322,8.826-16.113,9.915-34.07,18.437-53.886,25.55-19.829,7.127-38.091,10.684-54.814,10.684-12.396,0-24.315-2.003-35.769-6.039-11.468-4.021-22.152-10.364-32.053-19.046-15.489,14.865-29.585,23.227-42.272,25.085-12.701,1.858-19.045-3.396-19.045-15.794,0-5.574,2.003-11.613,6.038-18.116,4.021-6.504,9.131-12.383,15.33-17.652,6.184-5.255,13.007-9.755,20.439-13.472,7.433-3.716,14.24-5.574,20.438-5.574,9.9,0,16.259,3.411,19.046,10.22,2.787,6.822,3.861,12.702,3.252,17.652Z" stroke="#000" stroke-miterlimit="10" stroke-width="7"/>
  </g>
</svg>