<svg width="1014" height="185" viewBox="0 0 1014 185" fill="none" xmlns="http://www.w3.org/2000/svg">
<path d="M845.222 92.9344C848.346 90.6263 851.921 88.4711 855.944 86.4792C859.961 84.482 864.136 82.7694 868.468 81.336C872.801 79.9027 877.092 78.7644 881.356 77.9213C885.615 77.0834 889.532 76.6619 893.108 76.6619C895.442 76.6619 897.593 77.0149 899.549 77.7105C901.51 78.4114 903.245 79.3757 904.754 80.5983C906.263 81.8261 907.536 83.2436 908.566 84.8508C909.597 86.4634 910.385 88.176 910.938 89.994C911.074 90.4841 911.384 90.679 911.868 90.5736C912.347 90.4683 912.52 90.1363 912.383 89.5777C911.831 87.6174 910.99 85.7625 909.854 84.013C908.719 82.2635 907.346 80.7247 905.732 79.3915C904.118 78.0636 902.241 77.0307 900.116 76.293C897.982 75.5553 895.647 75.1917 893.108 75.1917C889.395 75.1917 885.357 75.629 880.998 76.5038C876.634 77.3785 872.238 78.5853 867.806 80.124C863.373 81.6627 859.093 83.4702 854.971 85.5306C850.849 87.5963 847.189 89.8517 843.992 92.3021C840.795 94.7524 838.235 97.3082 836.315 99.9641C834.391 102.625 833.429 105.318 833.429 108.053C833.429 109.66 834.186 110.941 835.7 111.884C837.209 112.827 839.255 113.549 841.831 114.034C844.407 114.524 847.363 114.856 850.696 115.03C854.03 115.204 857.516 115.362 861.16 115.504C865.35 115.646 869.525 115.836 873.684 116.084C877.843 116.332 881.587 116.8 884.921 117.501C888.254 118.202 890.952 119.219 893.013 120.547C895.074 121.875 896.105 123.735 896.105 126.112C896.105 128.351 895.021 130.786 892.855 133.41C890.689 136.035 888.012 138.469 884.816 140.709C881.619 142.948 878.164 144.803 874.457 146.273C870.745 147.744 867.38 148.481 864.357 148.481C862.637 148.481 861.349 148.007 860.492 147.064C859.635 146.121 859.204 144.946 859.204 143.544C859.204 141.937 859.703 140.15 860.697 138.19C861.691 136.23 863.189 134.412 865.182 132.731C865.524 132.52 865.592 132.204 865.387 131.787C865.182 131.366 864.835 131.334 864.357 131.682C862.159 133.568 860.508 135.566 859.409 137.668C858.31 139.771 857.758 141.726 857.758 143.549C857.758 145.367 858.304 146.89 859.409 148.118C860.508 149.34 862.159 149.957 864.357 149.957C866.486 149.957 868.789 149.588 871.266 148.856C873.742 148.118 876.198 147.138 878.637 145.915C881.077 144.693 883.443 143.275 885.746 141.663C888.049 140.05 890.079 138.374 891.83 136.62C893.586 134.87 894.974 133.084 896.005 131.266C897.035 129.448 897.551 127.73 897.551 126.122C897.551 123.461 896.452 121.364 894.248 119.82C892.051 118.281 889.217 117.111 885.746 116.305C882.276 115.499 878.38 114.956 874.047 114.677C869.72 114.398 865.424 114.187 861.165 114.05C857.931 113.913 854.755 113.755 851.632 113.581C848.504 113.407 845.706 113.106 843.23 112.69C840.758 112.269 838.745 111.71 837.199 111.009C835.653 110.308 834.88 109.328 834.88 108.069C834.88 105.476 835.826 102.889 837.714 100.296C839.586 97.6982 842.089 95.2478 845.222 92.9344Z" fill="#1C1C1C"/>
<path d="M973.093 125.068L975.979 124.336C976.442 124.199 976.626 123.883 976.526 123.392C976.426 122.902 976.111 122.729 975.58 122.866L972.693 123.598C972.293 123.74 972.162 124.056 972.293 124.541C972.43 125.031 972.693 125.205 973.093 125.068Z" fill="#1C1C1C"/>
<path d="M1013.92 133.626C1013.74 133.241 1013.38 133.152 1012.84 133.362C1011.13 134.411 1009.26 135.323 1007.25 136.092C1005.23 136.861 1003.37 137.246 1001.66 137.246C1000.7 137.246 999.64 137.072 998.478 136.719C997.315 136.371 996.253 135.707 995.296 134.727C995.023 134.448 994.75 134.274 994.476 134.2C994.203 134.132 993.861 134.269 993.451 134.622C992.904 135.112 992.357 135.549 991.81 135.934C991.263 136.319 990.769 136.635 990.322 136.877C989.875 137.125 989.518 137.262 989.244 137.299C988.971 137.336 988.834 137.209 988.834 136.93C988.834 136.44 989.024 135.929 989.397 135.407C989.77 134.88 990.233 134.374 990.78 133.884C991.327 133.394 991.91 132.994 992.525 132.677C993.141 132.361 993.719 132.203 994.271 132.203C994.75 132.203 995.055 132.377 995.191 132.73C995.328 133.083 995.359 133.394 995.296 133.673C995.296 134.095 995.501 134.321 995.912 134.353C996.322 134.39 996.595 134.232 996.732 133.879C996.8 133.32 996.679 132.656 996.374 131.882C996.064 131.112 995.365 130.728 994.271 130.728C993.588 130.728 992.836 130.938 992.015 131.355C991.195 131.776 990.443 132.282 989.76 132.878C989.076 133.473 988.514 134.137 988.067 134.869C988.035 134.917 988.014 134.97 987.988 135.017C987.63 135.096 987.125 135.238 986.526 135.502C985.001 136.166 983.461 136.745 981.899 137.236C980.337 137.726 978.797 138.11 977.272 138.39C975.747 138.669 974.354 138.811 973.092 138.811C971.83 138.811 970.868 138.39 970.205 137.552C969.811 137.056 969.611 136.461 969.59 135.765C969.611 135.75 969.637 135.739 969.658 135.723L969.59 135.481C969.606 135.08 969.674 134.648 969.805 134.184C969.868 133.837 969.69 133.589 969.259 133.447C968.827 133.31 968.543 133.41 968.412 133.763C968.291 134.179 968.207 134.574 968.149 134.949C967.492 135.291 966.782 135.649 965.993 136.018C964.726 136.614 963.396 137.157 961.992 137.647C960.588 138.137 959.305 138.384 958.143 138.384C956.981 138.384 956.077 138.015 955.425 137.283C954.773 136.545 954.173 135.797 953.632 135.028C953.016 134.121 952.38 133.331 951.734 132.667C951.082 132.003 950.177 131.671 949.015 131.671C948.195 131.671 947.185 131.966 945.986 132.561C944.788 133.157 943.541 133.837 942.243 134.606C941.012 135.375 939.782 136.076 938.552 136.709C937.321 137.341 936.259 137.652 935.37 137.652C935.165 137.652 935.044 137.478 935.013 137.125C934.976 136.777 934.96 136.356 934.96 135.865C934.96 135.096 934.908 134.343 934.808 133.61C934.708 132.872 934.103 132.509 933.015 132.509C932.4 132.509 931.716 132.667 930.964 132.983C930.212 133.299 929.46 133.684 928.709 134.137C927.957 134.59 927.236 135.064 926.553 135.555C925.869 136.045 925.285 136.466 924.807 136.814L925.322 134.084C925.391 133.594 925.186 133.352 924.707 133.352C924.229 133.352 923.955 133.526 923.887 133.879L923.819 134.316C922.394 135.217 922.104 135.354 920.254 136.082C918.298 136.851 916.489 137.236 914.833 137.236C913.902 137.236 912.877 137.062 911.746 136.709C910.621 136.361 909.59 135.697 908.665 134.717C908.397 134.437 908.134 134.263 907.871 134.19C907.603 134.121 907.271 134.258 906.877 134.611C906.346 135.101 905.815 135.539 905.284 135.923C904.753 136.308 904.274 136.624 903.843 136.867C903.412 137.114 903.065 137.251 902.797 137.288C902.534 137.325 902.397 137.199 902.397 136.919C902.397 136.429 902.581 135.918 902.944 135.396C903.307 134.869 903.754 134.364 904.285 133.874C904.816 133.383 905.379 132.983 905.978 132.667C906.572 132.351 907.14 132.193 907.671 132.193C908.134 132.193 908.434 132.366 908.565 132.719C908.696 133.073 908.728 133.383 908.665 133.663C908.665 134.084 908.865 134.311 909.259 134.343C909.659 134.379 909.922 134.221 910.053 133.868C910.121 133.31 910.006 132.646 909.706 131.871C909.406 131.102 908.728 130.717 907.666 130.717C907.003 130.717 906.272 130.928 905.479 131.344C904.685 131.766 903.954 132.272 903.291 132.867C902.629 133.463 902.082 134.126 901.651 134.859C901.219 135.597 901.004 136.276 901.004 136.909C901.004 138.311 901.682 138.901 903.044 138.695C904.401 138.484 905.91 137.541 907.571 135.86C908.633 136.84 909.774 137.557 911.005 138.01C912.23 138.469 913.508 138.695 914.838 138.695C916.631 138.695 918.582 138.295 920.706 137.488C922.304 136.882 922.683 136.819 923.503 136.35L923.172 138.49C923.103 138.843 923.188 139.085 923.429 139.222C923.666 139.364 924.06 139.222 924.607 138.801C925.222 138.379 925.906 137.894 926.658 137.33C927.41 136.772 928.177 136.245 928.966 135.755C929.75 135.265 930.507 134.843 931.222 134.495C931.942 134.148 932.536 133.968 933.015 133.968C933.288 133.968 933.441 134.163 933.478 134.548C933.509 134.933 933.53 135.37 933.53 135.86C933.53 136.698 933.599 137.452 933.735 138.116C933.872 138.78 934.419 139.112 935.376 139.112C936.333 139.112 937.495 138.78 938.862 138.116C940.229 137.452 941.596 136.698 942.963 135.86C944.125 135.091 945.271 134.443 946.402 133.916C947.532 133.389 948.405 133.131 949.02 133.131C949.772 133.131 950.387 133.394 950.866 133.916C951.344 134.443 951.854 135.091 952.407 135.86C953.09 136.84 953.842 137.747 954.662 138.59C955.482 139.428 956.644 139.849 958.148 139.849C959.447 139.849 960.851 139.602 962.355 139.117C963.859 138.627 965.278 138.068 966.614 137.436C967.208 137.157 967.686 136.893 968.123 136.64C968.223 137.367 968.486 138 968.917 138.537C969.842 139.691 971.236 140.271 973.092 140.271C974.417 140.271 975.878 140.129 977.472 139.849C979.065 139.57 980.669 139.185 982.299 138.695C983.923 138.205 985.532 137.61 987.125 136.909C987.241 136.856 987.33 136.819 987.415 136.788C987.415 136.83 987.404 136.867 987.404 136.909C987.404 138.311 988.103 138.901 989.507 138.695C990.911 138.484 992.462 137.541 994.176 135.86C995.27 136.84 996.448 137.557 997.715 138.01C998.982 138.469 1000.3 138.695 1001.66 138.695C1003.51 138.695 1005.53 138.295 1007.72 137.488C1009.9 136.682 1011.89 135.723 1013.67 134.601C1014 134.343 1014.08 134.011 1013.92 133.626Z" fill="#1C1C1C"/>
<path d="M814.245 133.627C814.076 133.242 813.729 133.152 813.198 133.363C811.537 134.412 808.924 135.323 806.973 136.093C805.017 136.862 803.208 137.247 801.552 137.247C800.621 137.247 799.596 137.073 798.471 136.72C797.34 136.372 796.315 135.708 795.389 134.728C795.121 134.449 794.858 134.275 794.59 134.201C794.322 134.132 793.996 134.269 793.596 134.623C793.065 135.113 792.534 135.55 792.003 135.935C791.472 136.319 790.988 136.636 790.562 136.878C790.131 137.126 789.784 137.263 789.516 137.3C789.248 137.336 789.117 137.21 789.117 136.931C789.117 136.441 789.301 135.929 789.663 135.408C790.026 134.881 790.473 134.375 791.004 133.885C791.535 133.395 792.098 132.994 792.697 132.678C793.297 132.362 793.859 132.204 794.39 132.204C794.853 132.204 795.153 132.378 795.284 132.731C795.416 133.084 795.447 133.395 795.384 133.674C795.384 134.096 795.584 134.322 795.978 134.354C796.378 134.391 796.641 134.233 796.772 133.88C796.835 133.321 796.725 132.657 796.425 131.882C796.126 131.113 795.447 130.728 794.385 130.728C793.723 130.728 792.992 130.939 792.198 131.355C791.404 131.777 790.673 132.283 790.01 132.878C789.59 133.258 789.232 133.674 788.906 134.106C788.817 134.106 788.717 134.122 788.612 134.159C784.894 135.908 783.511 136.309 781.219 136.973C778.932 137.637 777.123 137.974 775.798 137.974C774.405 137.974 773.442 137.658 772.911 137.031C772.38 136.404 771.981 135.771 771.718 135.139C771.518 134.649 771.271 134.143 770.971 133.616C770.671 133.089 770.093 132.831 769.231 132.831C768.431 132.831 767.422 133.216 766.197 133.985C764.966 134.754 763.694 135.629 762.369 136.609L762.868 134.09C762.931 133.743 762.753 133.5 762.322 133.358C761.89 133.221 761.606 133.395 761.475 133.885L761.422 134.201C759.819 135.218 759.598 135.329 757.663 136.088C755.707 136.857 753.898 137.242 752.242 137.242C751.311 137.242 750.286 137.068 749.155 136.715C748.03 136.367 747 135.703 746.074 134.723C745.806 134.443 745.543 134.269 745.28 134.196C745.012 134.127 744.681 134.264 744.286 134.617C743.755 135.107 743.224 135.545 742.693 135.929C742.162 136.314 741.684 136.63 741.253 136.873C740.821 137.12 740.474 137.257 740.206 137.294C739.943 137.331 739.807 137.205 739.807 136.925C739.807 136.435 739.991 135.924 740.354 135.402C740.716 134.875 741.163 134.37 741.694 133.88C742.225 133.389 742.788 132.989 743.387 132.673C743.982 132.357 744.549 132.199 745.08 132.199C745.543 132.199 745.843 132.372 745.974 132.725C746.106 133.079 746.137 133.389 746.074 133.669C746.074 134.09 746.274 134.317 746.668 134.349C747.068 134.385 747.331 134.227 747.462 133.874C747.531 133.316 747.415 132.652 747.115 131.877C746.816 131.108 746.137 130.723 745.075 130.723C744.413 130.723 743.682 130.934 742.888 131.35C742.094 131.772 741.363 132.278 740.701 132.873C740.254 133.274 739.88 133.721 739.538 134.185C739.286 134.322 739.023 134.459 738.724 134.607C737.861 135.028 736.915 135.429 735.889 135.813C734.859 136.198 733.849 136.53 732.856 136.809C731.862 137.089 731.772 137.231 730.973 137.231C729.58 137.231 728.486 136.883 727.692 136.182C726.893 135.482 726.199 134.681 725.605 133.769C725.074 133 724.574 132.963 724.111 133.663C723.312 134.854 722.371 135.903 721.277 136.815C720.184 137.726 719.169 138.18 718.243 138.18C717.912 138.18 717.744 137.953 717.744 137.494C717.744 137.041 717.791 136.514 717.891 135.919C717.933 135.655 717.991 135.387 718.059 135.113C718.096 135.034 718.117 134.949 718.122 134.86C718.186 134.601 718.259 134.343 718.338 134.08C718.538 133.453 718.738 132.926 718.932 132.504C719.064 132.156 718.948 131.877 718.585 131.666C718.222 131.456 717.938 131.529 717.739 131.877C717.539 132.441 717.307 133.152 717.045 134.032C717.034 134.064 717.029 134.09 717.024 134.122C714.132 135.123 712.822 134.886 708.642 134.886C707.349 134.886 706.055 134.833 704.762 134.728C703.468 134.623 702.206 134.433 700.981 134.159C700.708 134.09 700.434 134.127 700.166 134.264C699.893 134.401 699.793 134.712 699.861 135.192C699.998 136.156 699.893 137.052 699.556 137.879C699.215 138.707 698.773 139.118 698.226 139.118C697.816 139.118 697.595 138.875 697.564 138.396C697.527 137.911 697.616 137.363 697.821 136.741C698.026 136.119 698.315 135.518 698.689 134.933C699.062 134.349 699.525 133.953 700.066 133.743C700.477 133.606 700.576 133.295 700.371 132.81C700.166 132.33 699.861 132.156 699.451 132.293C698.91 132.52 698.426 132.884 697.984 133.353C687.426 134.749 679.318 136.219 670.458 137.753C673.056 131.666 675.038 125.243 676.405 118.487C677.772 111.731 678.456 104.718 678.456 97.4349C678.456 92.1179 676.8 87.8442 673.482 84.6245C670.164 81.4047 665.363 79.7922 659.075 79.7922C649.505 79.7922 640.961 80.8251 633.442 82.8908C625.923 84.9565 619.582 87.6176 614.423 90.869C609.26 94.1256 605.311 97.7089 602.582 101.63C599.848 105.55 598.481 109.397 598.481 113.181C598.481 115.42 599.081 117.222 600.274 118.587C601.468 119.952 603.061 120.985 605.043 121.686C605.385 121.828 605.643 121.649 605.811 121.159C605.979 120.669 605.863 120.352 605.453 120.215C603.744 119.657 602.393 118.798 601.405 117.644C600.411 116.49 599.917 115.004 599.917 113.181C599.917 109.613 601.252 105.935 603.918 102.156C606.584 98.3782 610.443 94.9318 615.507 91.8122C620.565 88.6979 626.748 86.1579 634.068 84.1976C641.381 82.2373 649.721 81.2572 659.085 81.2572C664.895 81.2572 669.338 82.7274 672.414 85.6679C675.49 88.6083 677.031 92.5289 677.031 97.4296C677.031 104.781 676.311 111.853 674.88 118.64C673.445 125.432 671.394 131.909 668.729 138.064C656.22 140.372 645.33 142.927 636.071 145.731C626.806 148.529 619.119 151.469 612.999 154.552C606.878 157.635 602.335 160.818 599.359 164.106C596.388 167.394 594.9 170.719 594.9 174.081C594.9 177.58 596.078 180.273 598.439 182.165C600.795 184.057 604.028 185 608.13 185C614.76 185 621.154 183.883 627.306 181.643C633.458 179.404 639.184 176.268 644.478 172.248C649.773 168.222 654.563 163.41 658.833 157.809C663.102 152.207 666.746 146.047 669.754 139.328C674.334 138.559 679.118 137.79 684.108 137.02C688.662 136.319 692.116 135.645 696.896 135.002C696.586 135.624 696.365 136.256 696.249 136.899C696.081 137.832 696.128 138.675 696.402 139.434C696.675 140.193 697.285 140.572 698.242 140.572C699.399 140.572 700.25 140.034 700.797 138.97C701.339 137.9 701.581 136.883 701.512 135.919C702.464 136.056 703.558 136.161 704.783 136.23C706.008 136.298 707.301 136.335 708.663 136.335C712.675 136.335 714.242 136.53 716.645 135.829C716.598 136.088 716.545 136.351 716.514 136.609C716.414 137.452 716.477 138.169 716.713 138.764C716.945 139.36 717.46 139.655 718.254 139.655C719.379 139.655 720.573 139.149 721.835 138.132C723.091 137.12 724.054 136.156 724.721 135.244C725.316 136.082 726.146 136.873 727.208 137.605C728.271 138.343 729.527 138.706 730.989 138.706C731.783 138.706 731.941 138.569 733.066 138.285C734.191 138.006 735.306 137.674 736.399 137.289C737.13 137.031 737.809 136.741 738.466 136.441C738.44 136.604 738.424 136.767 738.424 136.925C738.424 138.327 739.102 138.917 740.464 138.712C741.82 138.501 743.33 137.558 744.991 135.877C746.053 136.857 747.194 137.574 748.425 138.027C749.65 138.485 750.927 138.712 752.258 138.712C754.051 138.712 756.001 138.311 758.126 137.505C759.666 136.92 760.255 136.678 761.117 136.161L760.686 138.817C760.618 139.17 760.749 139.328 761.086 139.291C761.417 139.255 761.649 139.17 761.78 139.028C763.904 137.347 765.492 136.14 766.554 135.402C767.616 134.67 768.51 134.301 769.241 134.301C769.772 134.301 770.203 134.791 770.535 135.771C770.734 136.193 770.934 136.609 771.129 137.031C771.329 137.452 771.628 137.853 772.023 138.238C772.422 138.622 772.917 138.917 773.516 139.128C774.11 139.339 774.872 139.444 775.803 139.444C777.197 139.444 779.068 139.096 781.424 138.396C783.485 137.784 784.91 137.357 787.865 136.035C787.776 136.34 787.728 136.641 787.728 136.925C787.728 138.327 788.407 138.917 789.769 138.712C791.125 138.501 792.634 137.558 794.296 135.877C795.358 136.857 796.499 137.574 797.729 138.027C798.954 138.485 800.232 138.712 801.557 138.712C803.35 138.712 805.301 138.311 807.425 137.505C809.549 136.699 812.273 135.74 814.003 134.617C814.329 134.343 814.408 134.011 814.245 133.627ZM657.276 157.461C653.075 162.815 648.406 167.436 643.28 171.32C638.153 175.204 632.616 178.213 626.669 180.352C620.723 182.486 614.534 183.556 608.109 183.556C604.417 183.556 601.531 182.75 599.443 181.143C597.356 179.53 596.315 177.185 596.315 174.108C596.315 167.737 602.178 161.524 613.898 155.469C625.618 149.414 643.648 144.145 667.987 139.666C665.053 146.174 661.483 152.102 657.276 157.461Z" fill="#1C1C1C"/>
<path d="M576.087 133.785C575.987 133.294 575.703 133.121 575.24 133.258C572.059 134.095 568.905 134.991 565.792 135.935C562.674 136.878 559.656 137.879 556.737 138.928C556.275 136.967 555.412 135.987 554.15 135.987C552.889 135.987 551.727 136.214 550.67 136.672C549.608 137.125 548.482 137.352 547.289 137.352C546.295 137.352 545.512 137.073 544.949 136.514C544.381 135.956 544.202 135.081 544.402 133.89C544.47 133.4 544.286 133.152 543.855 133.152C543.587 133.152 543.382 133.226 543.23 133.363C541.957 133.869 540.464 134.275 538.734 134.57C536.878 134.886 534.985 135.044 533.066 135.044C531.21 135.044 529.469 134.854 527.844 134.464C526.22 134.08 524.974 133.505 524.117 132.731C523.917 132.52 523.654 132.504 523.317 132.678C522.986 132.852 522.918 133.115 523.118 133.463C523.649 134.796 523.911 136.056 523.911 137.241C523.911 138.575 523.549 139.239 522.818 139.239C522.618 139.239 522.434 139.081 522.271 138.764C522.103 138.448 522.024 138.079 522.024 137.663C522.024 136.614 522.203 135.371 522.571 133.937C522.934 132.504 523.433 131.034 524.064 129.527C524.695 128.025 525.442 126.502 526.304 124.958C527.166 123.419 528.06 121.986 528.991 120.653C529.322 120.3 529.29 119.989 528.891 119.709C528.491 119.43 528.128 119.467 527.797 119.815C526.803 121.217 525.873 122.703 525.01 124.278C524.148 125.854 523.386 127.429 522.723 129.005C522.061 130.581 521.545 132.119 521.183 133.626C520.82 135.134 520.636 136.477 520.636 137.668C520.636 138.511 520.851 139.228 521.282 139.824C521.714 140.414 522.229 140.714 522.823 140.714C523.685 140.714 524.316 140.398 524.716 139.771C525.116 139.144 525.31 138.301 525.31 137.252C525.31 136.973 525.294 136.641 525.263 136.256C525.226 135.871 525.179 135.502 525.116 135.155C526.109 135.576 527.319 135.908 528.749 136.156C530.174 136.404 531.615 136.525 533.076 136.525C535.064 136.525 537.036 136.367 538.997 136.05C540.474 135.813 541.768 135.508 542.888 135.128C542.888 136.219 543.177 137.052 543.771 137.626C544.602 138.432 545.774 138.833 547.304 138.833C548.63 138.833 549.823 138.606 550.885 138.153C551.947 137.7 553.041 137.473 554.166 137.473C554.897 137.473 555.36 138.137 555.56 139.465C553.104 140.445 550.833 141.457 548.745 142.511C546.658 143.56 544.833 144.682 543.272 145.873C541.715 147.064 540.506 148.323 539.644 149.651C538.781 150.979 538.35 152.381 538.35 153.851C538.35 155.111 538.781 156.196 539.644 157.108C540.506 158.014 541.6 158.473 542.925 158.473C545.38 158.473 547.483 157.877 549.239 156.686C550.996 155.495 552.457 154.025 553.619 152.276C554.781 150.526 555.644 148.634 556.206 146.606C556.769 144.577 557.053 142.753 557.053 141.146V140.303C559.903 139.254 562.921 138.258 566.107 137.31C569.288 136.367 572.475 135.508 575.656 134.738C576.04 134.586 576.187 134.275 576.087 133.785ZM555.644 141.13C555.644 142.601 555.397 144.245 554.897 146.063C554.398 147.881 553.619 149.614 552.557 151.259C551.495 152.903 550.17 154.268 548.577 155.353C546.984 156.439 545.096 156.981 542.909 156.981C541.978 156.981 541.221 156.665 540.622 156.038C540.022 155.411 539.728 154.673 539.728 153.835C539.728 152.576 540.127 151.348 540.921 150.162C541.72 148.972 542.83 147.833 544.255 146.748C545.68 145.662 547.357 144.629 549.282 143.649C551.206 142.669 553.325 141.721 555.649 140.814V141.13H555.644Z" fill="#1C1C1C"/>
<path d="M894.946 39.5749L919.585 1.83398H940.649V2.61916L903.69 55.5155V93.2565H886.202V55.5155L850.568 2.61916V1.83398H871.364L894.946 39.5749Z" fill="#1C1C1C"/>
<path d="M822.361 1.69702H839.849V93.2512H828.986V93.383L780.233 31.6073V93.2512H762.745V1.82876H776.921L822.361 58.5087V1.69702Z" fill="#1C1C1C"/>
<path d="M726.592 76.0092H678.108L670.158 93.2514H651.213L692.809 1.82886H711.885L753.482 93.2514H734.406L726.592 76.0092ZM702.347 21.0261L685.127 59.9474H719.573L702.347 21.0261Z" fill="#1C1C1C"/>
<path d="M614.925 66.3446H588.692V93.2513H571.204V1.82876C585.779 1.82876 600.349 1.69702 614.92 1.69702C660.228 1.69702 660.365 66.3446 614.925 66.3446ZM588.692 50.5411H614.925C637.314 50.5411 637.182 18.154 614.925 18.154H588.692V50.5411Z" fill="#1C1C1C"/>
<path d="M537.286 27.0335L507.078 66.7347H503.634L474.095 26.9018V93.3779H456.606V1.96069H476.745L505.759 41.272L534.772 1.96069H554.774V93.3832H537.286V27.0335Z" fill="#1C1C1C"/>
<path d="M443.635 48.0589C443.372 71.6983 428.665 95.3378 396.076 95.3378C363.487 95.3378 348.386 72.22 348.386 48.1906C348.386 24.1612 364.018 0 396.076 0C428.003 0 443.903 24.1612 443.635 48.0589ZM365.606 48.4541C366.005 63.4725 374.218 79.5342 396.076 79.5342C417.934 79.5342 426.147 63.3407 426.415 48.3223C426.678 32.9087 417.939 15.6718 396.076 15.6718C374.218 15.6718 365.211 33.0405 365.606 48.4541Z" fill="#1C1C1C"/>
<path d="M342.705 81.758C333.167 91.0325 320.848 95.3378 307.466 95.3378C273.021 95.3378 258.451 71.9618 258.319 48.1906C258.188 24.2929 273.951 0 307.466 0C320.054 0 331.974 4.7005 341.512 13.975L329.855 25.0781C323.761 19.2025 315.548 16.457 307.466 16.457C285.077 16.457 275.408 32.914 275.539 48.1959C275.671 63.346 284.546 79.1496 307.466 79.1496C315.548 79.1496 324.686 75.8824 330.78 69.8751L342.705 81.758Z" fill="#1C1C1C"/>
<path d="M188.633 44.0121H242.948V50.4094H188.633V86.4536H247.186V93.2461H181.613V1.82886H245.598V8.48965H188.633V44.0121Z" fill="#1C1C1C"/>
<path d="M154.065 93.2514V51.7215H94.9804V93.2514H87.8242V1.82886H94.9804V45.319H154.065V1.82886H161.221V93.2514H154.065Z" fill="#1C1C1C"/>
<path d="M33.5147 8.23153H0V1.96069H74.1857V8.23153H40.6709V93.2515H33.5147V8.23153Z" fill="#1C1C1C"/>
</svg>
