<svg width="71" height="72" viewBox="0 0 71 72" fill="none" xmlns="http://www.w3.org/2000/svg">
<path d="M56.2083 9H14.7917C11.524 9 8.875 11.6863 8.875 15V57C8.875 60.3137 11.524 63 14.7917 63H56.2083C59.476 63 62.125 60.3137 62.125 57V15C62.125 11.6863 59.476 9 56.2083 9Z" stroke="#CCCCCC" stroke-width="1.5" stroke-linecap="round" stroke-linejoin="round"/>
<path d="M25.1455 30C27.5963 30 29.583 27.9853 29.583 25.5C29.583 23.0147 27.5963 21 25.1455 21C22.6947 21 20.708 23.0147 20.708 25.5C20.708 27.9853 22.6947 30 25.1455 30Z" stroke="#CCCCCC" stroke-width="1.5" stroke-linecap="round" stroke-linejoin="round"/>
<path d="M62.1253 45L47.3337 30L14.792 63" stroke="#CCCCCC" stroke-width="1.5" stroke-linecap="round" stroke-linejoin="round"/>
</svg>
