<svg width="12" height="15" viewBox="0 0 12 15" fill="none" xmlns="http://www.w3.org/2000/svg">
<path d="M11.3871 12.267L10.639 3.83627C10.6255 3.66943 10.4856 3.54295 10.3161 3.54295H8.73918C8.73649 2.14096 7.59553 1 6.19354 1C4.79155 1 3.65059 2.14096 3.6479 3.54295H2.071C1.90416 3.54295 1.76423 3.66943 1.74809 3.83627L1 12.267C1 12.2778 1 12.2859 1 12.2966C1 13.2358 1.8638 14 2.92403 14H9.46305C10.5233 14 11.3871 13.2358 11.3871 12.2966C11.3871 12.2859 11.3871 12.2778 11.3871 12.267ZM6.19354 1.64583C7.24032 1.64583 8.09066 2.49617 8.09336 3.54295H4.29373C4.29642 2.49617 5.14676 1.64583 6.19354 1.64583ZM9.46305 13.3515H2.92403C2.22438 13.3515 1.6539 12.8859 1.64583 12.3074L2.367 4.18878H3.6479V5.32167C3.6479 5.49928 3.79321 5.64459 3.97081 5.64459C4.14842 5.64459 4.29373 5.49928 4.29373 5.32167V4.18878H8.09336V5.32167C8.09336 5.49928 8.23867 5.64459 8.41627 5.64459C8.59387 5.64459 8.73918 5.49928 8.73918 5.32167V4.18878H10.0201L10.7413 12.3101C10.7332 12.8859 10.1627 13.3515 9.46305 13.3515Z" fill="#1C1C1C" stroke="#1C1C1C" stroke-width="0.5"/>
</svg>
