<svg width="34" height="34" viewBox="0 0 34 34" fill="none" xmlns="http://www.w3.org/2000/svg">
<circle opacity="0.2" cx="17" cy="17" r="17" fill="#D9D9D9"/>
<path d="M17.8835 11.1743C17.6942 11.0603 17.4775 11 17.2565 11C17.0356 11 16.8188 11.0603 16.6296 11.1743L12.2522 13.8108C12.2211 13.8327 12.1839 13.8444 12.1459 13.8444H10.3266C9.97479 13.8444 9.63736 13.9841 9.38856 14.2329C9.13977 14.4817 9 14.8192 9 15.171V18.1154C9.00147 18.4668 9.14172 18.8033 9.39019 19.0518C9.63867 19.3003 9.97525 19.4405 10.3266 19.442H12.1459C12.1808 19.4337 12.2173 19.4337 12.2522 19.442L16.6296 22.0673C16.8196 22.179 17.0361 22.2379 17.2565 22.2379C17.477 22.2379 17.6934 22.179 17.8835 22.0673C18.0701 21.9635 18.2266 21.813 18.3375 21.6304C18.4484 21.4479 18.5099 21.2396 18.516 21.0261V12.2546C18.518 12.0342 18.4602 11.8174 18.3488 11.6272C18.2374 11.437 18.0766 11.2805 17.8835 11.1743ZM17.3965 21.0261C17.3974 21.0487 17.3922 21.071 17.3813 21.0907C17.3705 21.1105 17.3544 21.1269 17.3349 21.1381C17.3153 21.1494 17.2931 21.1553 17.2705 21.1553C17.2479 21.1553 17.2257 21.1494 17.2061 21.1381L12.8288 18.5128C12.6236 18.3864 12.3869 18.3205 12.1459 18.3225H10.3266C10.2722 18.3211 10.2203 18.2988 10.1818 18.2603C10.1432 18.2217 10.1209 18.1699 10.1195 18.1154V15.171C10.1195 15.1161 10.1413 15.0634 10.1802 15.0246C10.219 14.9857 10.2717 14.9639 10.3266 14.9639H12.1459C12.3865 14.963 12.6224 14.8973 12.8288 14.7736L17.2061 12.1483C17.2253 12.1358 17.2476 12.1291 17.2705 12.1291C17.2934 12.1291 17.3158 12.1358 17.3349 12.1483C17.3544 12.1581 17.3706 12.1734 17.3816 12.1923C17.3925 12.2112 17.3977 12.2328 17.3965 12.2546V21.0261Z" fill="white"/>
<path d="M19.8093 13.4748C19.705 13.5797 19.6465 13.7216 19.6465 13.8695C19.6465 14.0173 19.705 14.1592 19.8093 14.2641C20.4274 14.9152 20.7721 15.7788 20.7721 16.6767C20.7721 17.5745 20.4274 18.4381 19.8093 19.0893C19.705 19.1941 19.6465 19.336 19.6465 19.4839C19.6465 19.6318 19.705 19.7736 19.8093 19.8785C19.9141 19.9828 20.056 20.0413 20.2039 20.0413C20.3518 20.0413 20.4936 19.9828 20.5985 19.8785C21.4177 19.0205 21.8748 17.8798 21.8748 16.6935C21.8748 15.5072 21.4177 14.3665 20.5985 13.5084C20.4982 13.3996 20.3588 13.3349 20.2108 13.3286C20.0629 13.3223 19.9185 13.3749 19.8093 13.4748Z" fill="white"/>
<path d="M22.8551 11.8292C22.7552 11.7252 22.619 11.6638 22.4748 11.6577C22.3307 11.6517 22.1899 11.7015 22.0816 11.7968C21.9733 11.8921 21.906 12.0255 21.8937 12.1692C21.8813 12.3129 21.925 12.4558 22.0154 12.5681C22.9981 13.7127 23.5434 15.1683 23.5548 16.6768C23.5434 18.1852 22.9981 19.6409 22.0154 20.7855C21.9631 20.84 21.9223 20.9045 21.8956 20.9752C21.8688 21.0458 21.8567 21.1212 21.8599 21.1967C21.863 21.2722 21.8815 21.3463 21.914 21.4144C21.9466 21.4826 21.9926 21.5435 22.0493 21.5934C22.1061 21.6434 22.1723 21.6813 22.2441 21.7049C22.3159 21.7285 22.3917 21.7374 22.467 21.7309C22.5423 21.7245 22.6155 21.7028 22.6822 21.6673C22.7489 21.6318 22.8077 21.5832 22.8551 21.5243C24.0185 20.1761 24.6635 18.4575 24.6743 16.6768C24.6635 14.896 24.0185 13.1774 22.8551 11.8292Z" fill="white"/>
</svg>
