<svg width="34" height="34" viewBox="0 0 34 34" fill="none" xmlns="http://www.w3.org/2000/svg">
<circle opacity="0.2" cx="17" cy="17" r="17" fill="#D9D9D9"/>
<path d="M17.8835 11.1724C17.6938 11.0596 17.4772 11 17.2565 11C17.0358 11 16.8192 11.0596 16.6296 11.1724L12.2522 13.8089C12.2196 13.8267 12.1831 13.8363 12.1459 13.8369H10.3266C9.97428 13.8384 9.63686 13.9794 9.38822 14.2291C9.13959 14.4788 9 14.8168 9 15.1692V18.1135C9 18.4654 9.13977 18.8028 9.38856 19.0516C9.63736 19.3004 9.97479 19.4402 10.3266 19.4402H12.1459C12.1839 19.4401 12.2211 19.4519 12.2522 19.4737L16.6296 22.099C16.8226 22.2144 17.0429 22.2762 17.2677 22.2782C17.5979 22.2752 17.9137 22.1428 18.1471 21.9093C18.3806 21.6759 18.5131 21.36 18.516 21.0299V12.2584C18.5178 12.0373 18.46 11.8197 18.3487 11.6287C18.2374 11.4376 18.0767 11.28 17.8835 11.1724ZM17.3965 21.0299C17.3985 21.0518 17.3936 21.0738 17.3826 21.0929C17.3716 21.1119 17.3549 21.1271 17.3349 21.1362C17.3158 21.1488 17.2934 21.1554 17.2705 21.1554C17.2476 21.1554 17.2253 21.1488 17.2061 21.1362L12.8288 18.5109C12.6224 18.3873 12.3865 18.3215 12.1459 18.3206H10.3266C10.2717 18.3206 10.219 18.2988 10.1802 18.26C10.1413 18.2211 10.1195 18.1684 10.1195 18.1135V15.1692C10.1209 15.1147 10.1432 15.0628 10.1818 15.0243C10.2203 14.9857 10.2722 14.9635 10.3266 14.962H12.1459C12.386 14.9631 12.622 14.8993 12.8288 14.7773L17.2061 12.1296C17.2257 12.1183 17.2479 12.1124 17.2705 12.1124C17.2931 12.1124 17.3153 12.1183 17.3349 12.1296C17.3544 12.1409 17.3705 12.1573 17.3813 12.177C17.3922 12.1967 17.3974 12.2191 17.3965 12.2416V21.0299Z" fill="white"/>
<path d="M24.1137 16.0479H20.7551C20.6066 16.0479 20.4642 16.1068 20.3593 16.2118C20.2543 16.3168 20.1953 16.4592 20.1953 16.6076C20.1953 16.7561 20.2543 16.8985 20.3593 17.0034C20.4642 17.1084 20.6066 17.1674 20.7551 17.1674H24.1137C24.2621 17.1674 24.4045 17.1084 24.5095 17.0034C24.6145 16.8985 24.6734 16.7561 24.6734 16.6076C24.6734 16.4592 24.6145 16.3168 24.5095 16.2118C24.4045 16.1068 24.2621 16.0479 24.1137 16.0479Z" fill="white"/>
</svg>
